<?xml version="1.0" standalone="no"?>
<!DOCTYPE svg PUBLIC "-//W3C//DTD SVG 20010904//EN"
 "http://www.w3.org/TR/2001/REC-SVG-20010904/DTD/svg10.dtd">
<svg version="1.0" xmlns="http://www.w3.org/2000/svg"
 width="1280.000000pt" height="640.000000pt" viewBox="0 0 1280.000000 640.000000"
 preserveAspectRatio="xMidYMid meet">
<metadata>
Created by potrace 1.15, written by Peter Selinger 2001-2017
</metadata>
<g transform="translate(0.000000,640.000000) scale(0.100000,-0.100000)"
fill="#000000" stroke="none">
<path d="M9945 5369 c-373 -37 -1110 -198 -1581 -344 -308 -95 -386 -108
-1909 -299 -462 -59 -613 -67 -1335 -75 l-655 -7 -135 -32 c-382 -89 -754
-218 -1030 -358 -204 -103 -267 -150 -475 -354 -104 -102 -237 -228 -295 -280
-57 -52 -192 -178 -300 -279 -395 -373 -945 -863 -1095 -976 -175 -132 -375
-235 -529 -275 -66 -17 -106 -20 -236 -18 l-156 3 -59 -30 c-65 -33 -120 -99
-145 -174 -17 -52 -2 -106 43 -157 42 -49 92 -79 184 -111 73 -26 89 -28 243
-28 146 0 177 4 273 28 199 50 394 145 577 280 52 39 181 134 285 211 243 178
365 277 490 396 134 129 226 190 306 205 34 6 37 4 52 -28 10 -19 17 -58 17
-85 0 -47 -3 -53 -47 -92 -61 -53 -187 -114 -282 -136 -112 -25 -156 -72 -175
-185 -8 -44 27 -232 49 -265 31 -48 123 -95 370 -189 83 -31 184 -74 226 -95
164 -82 333 -114 614 -115 212 0 238 6 275 68 29 46 25 107 -13 220 -36 106
-52 127 -155 209 -35 28 -60 54 -55 58 12 10 248 95 333 120 150 43 177 52
268 92 51 22 95 38 98 35 11 -11 -20 -53 -87 -120 -82 -81 -121 -155 -121
-226 1 -79 32 -125 105 -155 176 -72 1157 -218 1627 -242 206 -10 276 11 347
104 42 56 67 139 66 225 -1 56 -7 81 -33 133 -17 35 -48 78 -68 95 -20 17 -29
29 -19 26 9 -4 68 -12 130 -18 136 -14 399 -7 882 22 449 28 834 30 1000 6
170 -25 337 -60 516 -107 255 -68 657 -189 764 -230 170 -65 414 -168 474
-200 134 -72 255 -201 286 -306 12 -41 28 -67 60 -98 100 -98 358 -195 516
-196 110 0 310 50 421 106 90 46 140 146 139 281 -1 121 -32 182 -112 224 -50
25 -141 146 -164 217 -6 20 -3 22 34 22 46 0 134 30 162 56 17 15 22 16 46 3
58 -31 334 -272 426 -372 83 -90 122 -122 243 -202 170 -112 240 -152 286
-166 18 -5 94 -16 168 -24 74 -8 182 -25 240 -37 61 -13 142 -22 192 -22 76 0
93 3 145 30 104 53 151 158 140 316 -10 153 -69 220 -256 293 -148 57 -198 89
-256 162 -99 125 -174 267 -384 738 -135 300 -217 460 -310 603 -38 59 -76
131 -85 161 -20 68 -20 212 -1 346 21 142 19 220 -10 359 -53 263 -195 624
-327 833 -61 97 -161 183 -281 242 -115 57 -191 82 -427 142 -144 36 -181 42
-295 45 -71 1 -170 -2 -220 -7z m505 -187 c318 -84 419 -129 526 -236 64 -64
79 -88 152 -236 131 -269 229 -569 239 -741 4 -54 -1 -137 -12 -225 -21 -168
-16 -310 15 -398 11 -33 52 -108 90 -167 39 -59 100 -165 137 -235 l66 -127
-28 -111 c-16 -61 -55 -190 -87 -286 -32 -96 -58 -182 -58 -191 0 -9 7 -22 15
-29 21 -17 55 7 88 62 40 69 95 210 117 299 10 45 21 83 23 86 3 2 33 -60 67
-139 102 -233 234 -497 298 -593 115 -173 196 -237 388 -306 91 -33 140 -67
155 -107 14 -37 5 -38 -38 -4 -46 37 -87 49 -108 32 -26 -21 -17 -38 38 -73
28 -19 67 -50 85 -69 33 -35 33 -36 18 -72 -11 -26 -26 -41 -50 -51 -49 -21
-51 -20 -66 28 -38 127 -110 204 -139 149 -7 -14 -6 -25 4 -40 24 -34 65 -119
65 -135 0 -12 -13 -12 -92 4 -50 11 -93 21 -95 23 -3 2 -10 33 -18 69 -23 111
-58 158 -93 123 -15 -15 -15 -19 1 -63 9 -27 19 -64 22 -84 l7 -36 -115 13
c-63 7 -126 18 -138 24 -13 7 -91 55 -174 107 -135 86 -164 110 -295 243 -145
147 -370 336 -466 391 -28 16 -65 29 -83 29 -27 0 -34 6 -56 50 -14 27 -25 51
-25 54 0 2 30 9 68 16 37 7 70 18 74 24 4 6 8 32 8 57 0 25 3 80 6 122 7 77 7
77 36 77 23 0 28 -4 24 -17 -3 -10 -10 -46 -17 -81 -9 -49 -9 -66 0 -75 42
-41 112 175 157 488 27 184 23 648 -6 695 -14 23 -37 -5 -49 -61 -6 -28 -11
-141 -12 -252 -1 -111 -4 -229 -8 -262 l-6 -60 -52 95 -51 94 21 15 c12 8 36
27 54 44 l32 30 -29 56 c-35 71 -141 231 -164 250 -20 17 -49 5 -54 -21 -2 -8
24 -55 56 -104 32 -49 68 -105 80 -126 l22 -36 -26 -21 c-15 -12 -37 -21 -50
-21 -38 0 -31 -48 23 -153 26 -50 50 -96 52 -101 2 -5 -13 -6 -33 -2 -27 5
-36 3 -36 -7 0 -7 17 -64 38 -127 21 -63 42 -128 46 -144 l7 -28 -59 7 -60 7
-7 -129 c-3 -70 -7 -135 -8 -143 -2 -10 -29 -19 -90 -31 -48 -8 -89 -18 -92
-21 -4 -3 17 -48 45 -100 27 -52 50 -102 50 -112 0 -29 -48 -38 -156 -31
l-100 6 -19 -40 c-9 -22 -15 -52 -13 -66 3 -14 2 -28 -2 -30 -5 -3 -72 -1
-150 5 l-141 10 -33 -25 c-17 -13 -57 -36 -88 -50 -57 -26 -58 -26 -195 -16
-195 14 -523 54 -523 63 0 5 15 8 33 8 76 0 214 58 316 133 125 91 281 228
281 247 0 22 -30 42 -48 31 -13 -8 -103 -6 -141 4 -14 4 -48 24 -76 45 -52 39
-115 75 -115 65 0 -29 119 -158 177 -192 l33 -20 -65 -52 c-92 -75 -191 -138
-251 -160 -138 -52 -333 -47 -532 15 -129 40 -191 74 -250 138 -76 83 -108
156 -126 295 -12 91 -30 117 -60 92 -20 -17 -21 -82 -2 -172 18 -85 51 -161
93 -216 18 -24 31 -43 29 -43 -2 0 -32 9 -67 20 -365 112 -694 179 -989 201
-160 11 -243 10 -709 -17 -145 -8 -265 -13 -267 -11 -2 2 10 36 27 76 45 107
69 248 79 471 5 107 15 268 21 356 13 173 10 208 -21 224 -61 33 -203 -210
-251 -432 -26 -118 -39 -341 -32 -544 l6 -162 -118 -7 c-252 -16 -569 6 -724
51 l-54 15 6 99 c7 121 -5 201 -38 251 -34 52 -74 72 -114 58 -55 -19 -66 -69
-28 -116 34 -40 39 -70 31 -209 -6 -113 -8 -122 -24 -114 -33 18 -293 90 -323
90 -37 0 -77 -35 -77 -66 0 -46 38 -71 160 -104 239 -67 506 -181 550 -237 53
-68 47 -183 -14 -248 -40 -42 -85 -48 -101 -13 -6 12 -22 29 -37 38 -25 13
-31 13 -55 0 -16 -9 -29 -26 -31 -38 -2 -13 -7 -22 -10 -20 -61 31 -64 32 -93
21 l-30 -12 31 35 c57 66 33 147 -64 211 -65 44 -134 63 -230 63 -196 0 -288
-121 -182 -239 l21 -24 -65 7 c-267 28 -864 135 -936 168 -18 9 -23 17 -18 32
10 36 52 89 101 132 71 61 107 132 107 216 l1 67 150 82 c357 195 687 405 705
448 22 55 -33 115 -87 94 -10 -4 -74 -44 -143 -88 -230 -150 -493 -301 -745
-428 -179 -91 -277 -131 -388 -161 -52 -14 -175 -55 -274 -92 -98 -36 -194
-67 -213 -67 -29 -1 -50 10 -120 63 -105 81 -119 89 -152 90 -29 0 -68 -40
-68 -71 0 -33 54 -82 247 -222 263 -192 279 -207 309 -291 13 -38 24 -75 24
-83 0 -10 -25 -13 -108 -13 -60 0 -112 3 -115 7 -4 3 7 14 23 24 38 24 40 60
4 88 -34 26 -68 27 -94 1 -26 -26 -25 -52 0 -75 26 -24 11 -35 -47 -35 -48 0
-47 -1 -32 50 41 135 -207 282 -405 240 -48 -10 -67 -20 -103 -57 l-45 -44
-106 42 c-59 23 -128 53 -154 67 -45 24 -48 27 -62 93 -20 83 -20 123 -3 138
8 6 54 22 103 36 180 53 358 178 383 270 37 137 -18 289 -123 339 l-49 23 32
24 c17 12 31 27 31 32 0 4 -16 43 -35 85 -42 91 -82 136 -147 167 l-48 22 99
91 c54 51 109 95 122 100 42 16 89 -6 154 -71 42 -42 73 -85 96 -135 l35 -73
52 55 c40 42 52 62 52 87 0 50 -59 148 -140 230 l-75 77 208 202 c232 227 256
247 382 319 87 50 112 60 101 42 -14 -23 -38 -175 -60 -391 -27 -259 -43 -350
-86 -485 -78 -245 -93 -310 -94 -390 -1 -65 2 -80 15 -83 12 -2 26 32 64 153
42 132 56 166 98 223 115 156 163 351 187 762 6 102 8 206 5 232 -7 46 -6 47
32 66 47 24 307 122 324 122 9 0 10 -29 5 -121 -12 -199 -44 -330 -105 -430
-39 -63 -40 -79 -2 -79 39 0 134 86 167 152 47 93 77 231 78 358 1 63 -3 127
-7 141 -8 26 -8 26 105 58 164 45 272 71 276 66 9 -9 -35 -121 -113 -285 -93
-195 -120 -271 -135 -378 -11 -81 -4 -107 44 -152 30 -28 52 -21 73 21 41 83
76 174 111 291 48 157 77 237 96 264 17 22 17 31 -9 -191 -30 -247 -36 -266
-152 -488 -29 -54 -57 -123 -64 -155 -19 -94 3 -200 53 -258 37 -42 61 -56 82
-48 14 5 15 20 10 98 -10 135 23 245 101 341 90 112 113 209 126 545 9 232 18
337 37 405 l9 30 136 0 c85 0 137 -4 137 -10 0 -5 -7 -32 -16 -60 -12 -38 -18
-120 -24 -355 -10 -388 -14 -403 -146 -597 -74 -109 -115 -191 -159 -322 -54
-158 -57 -221 -11 -221 57 0 167 136 242 296 25 55 76 161 114 236 38 75 85
188 105 250 34 104 38 126 45 283 5 94 14 220 20 280 6 61 13 134 16 163 l5
52 143 0 142 0 -48 -312 c-73 -482 -74 -488 -116 -584 -47 -108 -65 -177 -57
-215 8 -37 59 -79 94 -79 27 0 31 6 69 108 91 238 130 434 167 827 8 88 17
184 21 213 l5 52 72 0 72 0 2 -64 c1 -35 18 -127 37 -205 82 -332 75 -405 -80
-820 -102 -272 -116 -323 -117 -427 -1 -66 3 -89 23 -130 20 -39 31 -50 53
-52 41 -5 44 5 126 354 10 45 37 130 59 190 22 60 70 227 106 372 48 192 84
308 132 430 73 186 104 289 104 343 l0 35 159 18 c87 9 175 19 194 23 35 5 36
4 44 -33 4 -22 8 -160 8 -309 -1 -293 -12 -417 -66 -735 -16 -96 -29 -188 -27
-205 6 -59 64 -37 94 35 49 117 69 204 115 505 28 183 33 246 38 490 l6 279
90 13 c50 6 108 13 129 15 l40 3 19 -100 c28 -145 28 -435 -1 -702 -25 -227
-28 -358 -10 -369 6 -4 19 3 29 15 38 46 123 356 154 556 9 61 28 155 41 210
35 139 123 418 137 431 7 6 35 14 63 17 51 6 52 6 58 -25 11 -55 6 -290 -10
-483 -20 -238 -22 -456 -6 -512 22 -75 44 -52 72 73 11 49 29 121 39 161 35
128 45 260 36 488 -4 116 -8 235 -9 265 l-1 55 55 7 c85 12 392 59 421 65 26
5 27 3 34 -48 12 -91 75 -432 87 -469 15 -48 28 -63 43 -50 22 18 26 75 15
185 -9 89 -62 331 -84 386 -5 12 6 18 61 29 37 7 130 33 206 56 76 24 140 44
143 44 2 0 -12 -24 -32 -54 -39 -60 -124 -307 -124 -362 0 -23 6 -37 21 -44
33 -18 46 2 52 85 4 57 13 88 38 135 39 74 151 182 274 266 88 60 93 62 265
102 556 130 889 183 1130 178 132 -3 159 -7 300 -44z m-3282 -592 c-5 -87 -24
-123 -62 -118 -25 4 -31 36 -21 125 6 60 7 62 38 66 18 2 36 5 41 5 5 1 6 -34
4 -78z m-1208 -87 c-1 -85 -41 -275 -70 -332 -21 -42 -20 -44 -50 114 -21 108
-20 177 1 217 6 11 25 18 57 21 26 2 50 4 55 5 4 1 7 -10 7 -25z m-3820 -1528
c31 -16 62 -54 104 -127 l27 -47 -39 -20 c-22 -11 -70 -43 -107 -72 -37 -28
-68 -49 -69 -47 -1 1 -9 19 -16 38 -17 44 -71 131 -93 148 -14 12 -8 21 55 78
76 68 91 73 138 49z m4541 -86 c19 -28 21 -39 15 -107 -10 -119 -42 -219 -79
-250 -20 -17 -27 12 -27 124 0 134 29 264 60 264 5 0 19 -14 31 -31z m4409
-124 c0 -50 -14 -61 -23 -17 -3 15 -9 35 -12 45 -6 13 -2 17 14 17 18 0 21 -6
21 -45z m-9251 -50 c18 -23 82 -177 80 -193 0 -9 -122 -110 -140 -117 -10 -4
-22 11 -38 46 -14 28 -44 71 -68 96 -25 25 -43 46 -41 48 42 42 166 145 175
145 6 0 21 -11 32 -25z m-322 -301 c36 -27 70 -85 75 -126 3 -23 -9 -35 -81
-87 -46 -34 -89 -61 -95 -61 -22 0 -69 54 -94 108 l-25 54 49 42 c27 22 62 53
79 68 37 34 50 34 92 2z m-343 -246 c4 -18 10 -70 13 -115 8 -106 11 -105
-135 -15 l-73 44 88 58 c48 32 91 59 94 59 4 1 10 -14 13 -31z m-312 -212 c15
-30 41 -70 59 -90 17 -20 30 -38 28 -40 -14 -11 -150 -58 -215 -75 -124 -31
-170 -36 -177 -18 -14 36 -30 178 -21 185 5 5 38 14 74 21 36 7 97 25 135 41
39 15 75 28 80 29 6 1 23 -23 37 -53z m9643 -136 l60 0 33 -69 c50 -100 127
-198 188 -237 59 -38 70 -65 59 -137 -13 -76 -31 -106 -77 -127 -24 -11 -48
-20 -55 -20 -6 0 -16 22 -23 48 -16 70 -44 112 -74 112 -34 0 -40 -26 -17 -74
11 -23 23 -58 26 -78 7 -36 6 -37 -32 -46 -21 -6 -55 -13 -75 -17 l-38 -6 -1
53 c0 29 -6 73 -12 98 -11 41 -15 45 -42 45 l-30 0 4 -99 3 -99 -32 7 c-18 3
-39 6 -46 6 -10 0 -14 13 -14 43 -1 62 -16 127 -33 144 -11 12 -19 13 -36 4
-19 -11 -20 -17 -14 -86 3 -41 3 -75 -1 -75 -17 0 -158 70 -189 94 -22 17 -38
41 -46 68 -36 123 -177 279 -328 365 -35 19 -63 36 -63 37 0 1 48 -3 108 -10
59 -7 164 -16 234 -20 141 -8 178 0 268 58 44 28 48 29 140 24 52 -3 122 -6
155 -6z"/>
<path d="M9776 5090 c-196 -25 -456 -107 -456 -144 0 -8 8 -24 19 -37 16 -20
26 -22 87 -21 38 1 139 15 224 32 85 17 203 34 261 37 124 7 162 -2 399 -97
222 -88 317 -109 371 -80 26 14 24 52 -4 78 -30 28 -190 103 -303 141 -257 87
-425 113 -598 91z"/>
<path d="M8645 4826 c-87 -38 -104 -201 -38 -349 29 -64 55 -86 79 -66 20 16
18 34 -13 98 -30 65 -43 183 -24 220 16 30 56 44 83 30 22 -12 22 -6 2 -177
-6 -46 -3 -60 24 -115 48 -96 142 -212 172 -212 47 0 36 37 -39 142 -39 54
-75 111 -79 128 -7 27 2 143 13 153 2 3 28 -15 57 -40 75 -63 93 -72 112 -52
9 8 16 21 16 28 0 16 -222 204 -257 217 -33 12 -72 11 -108 -5z"/>
<path d="M9900 4729 c-41 -10 -145 -23 -230 -28 -307 -21 -540 -76 -540 -126
0 -42 71 -44 310 -10 265 37 473 31 600 -20 36 -14 147 -67 247 -117 160 -81
189 -92 235 -93 47 0 53 2 56 22 4 29 -49 63 -255 166 -118 60 -168 91 -224
141 -92 83 -105 88 -199 65z"/>
<path d="M10907 4603 c-14 -13 -6 -25 66 -96 129 -128 193 -253 242 -472 21
-93 29 -161 35 -306 4 -103 10 -191 14 -198 10 -16 33 -14 40 5 23 61 13 317
-20 514 -20 118 -70 261 -123 350 -47 79 -131 174 -172 195 -29 16 -71 20 -82
8z"/>
<path d="M7742 4513 c-5 -10 -12 -31 -16 -48 -10 -52 -36 -402 -36 -498 0
-234 -46 -487 -175 -972 -100 -375 -114 -443 -97 -479 16 -35 38 -33 77 8 38
40 70 105 86 173 6 26 13 55 16 63 4 8 12 -63 19 -159 10 -124 18 -184 31
-210 25 -49 52 -48 78 4 18 37 19 56 15 255 -12 527 -1 706 65 1097 15 89 25
186 25 247 0 111 -24 382 -40 463 -13 60 -33 84 -48 56z"/>
<path d="M9765 4394 c-11 -3 -69 -21 -130 -41 -115 -36 -237 -54 -324 -45 -71
7 -121 -5 -121 -27 0 -41 18 -44 308 -45 254 -2 282 -4 332 -23 71 -26 160
-71 290 -146 78 -45 115 -61 145 -61 34 -1 40 2 40 19 0 15 -35 43 -128 105
-119 79 -132 90 -170 154 -30 49 -53 75 -79 88 -37 20 -126 31 -163 22z"/>
<path d="M10743 4305 c-28 -8 -84 -27 -125 -42 -62 -24 -73 -32 -76 -54 -5
-42 22 -43 137 -2 141 49 229 52 284 10 111 -84 92 -227 -49 -377 -66 -69 -75
-89 -50 -109 21 -17 42 -4 117 76 91 98 124 167 124 263 0 110 -48 189 -140
231 -48 22 -147 24 -222 4z"/>
<path d="M8245 4213 c-77 -80 -315 -407 -315 -434 0 -5 26 -16 58 -25 31 -9
59 -18 61 -20 2 -2 -28 -39 -67 -83 -40 -44 -72 -82 -72 -84 0 -3 25 -20 55
-37 30 -17 55 -34 55 -37 0 -4 -38 -57 -85 -120 l-86 -113 77 -35 c42 -19 80
-35 85 -35 14 0 11 -17 -27 -138 -19 -63 -34 -115 -32 -117 2 -1 35 -10 73
-19 39 -9 77 -21 84 -26 12 -7 0 -37 -58 -149 l-72 -141 48 -1 c26 0 70 -4 98
-7 l49 -7 11 -63 c13 -68 28 -87 57 -71 21 11 22 49 4 149 l-11 65 -67 3 -68
3 66 131 c36 71 64 131 62 133 -2 2 -39 13 -83 24 -44 12 -85 24 -91 26 -8 2
-1 39 22 116 19 61 34 114 34 118 0 3 -32 19 -70 35 -39 17 -70 33 -70 36 0 4
37 56 82 115 91 121 90 109 6 158 l-38 22 86 92 85 92 -75 23 c-42 13 -76 25
-76 28 0 13 182 257 238 319 62 70 76 104 46 115 -26 10 -31 8 -79 -41z"/>
<path d="M9653 4079 c-28 -10 -105 -24 -170 -30 -69 -6 -128 -17 -141 -26 -23
-14 -23 -15 -6 -34 16 -17 32 -19 179 -19 186 0 209 -6 322 -76 81 -50 126
-56 131 -17 2 17 -14 33 -77 79 -45 31 -84 67 -87 78 -10 35 -46 66 -73 65
-14 0 -49 -9 -78 -20z"/>
<path d="M6174 3995 c-46 -110 -120 -602 -159 -1055 -21 -251 -33 -490 -25
-519 18 -69 55 -1 93 169 32 139 43 220 57 409 6 79 28 247 50 375 22 127 44
265 50 306 15 99 15 271 0 315 -16 47 -46 48 -66 0z"/>
<path d="M7250 3799 c-12 -22 -31 -75 -42 -117 -18 -67 -22 -119 -28 -412 -5
-227 -13 -370 -25 -444 -9 -60 -14 -115 -11 -122 14 -37 108 6 136 61 12 25
15 99 16 410 1 228 7 402 13 434 6 29 11 85 11 123 0 112 -32 142 -70 67z"/>
<path d="M8290 3769 c-35 -64 57 -322 185 -519 45 -71 102 -140 115 -140 17 0
-20 91 -95 233 -63 122 -82 167 -107 269 -33 134 -51 178 -73 178 -8 0 -19 -9
-25 -21z"/>
<path d="M8899 3698 c-46 -37 -27 -81 43 -102 55 -16 131 -60 162 -95 25 -28
31 -98 13 -151 -18 -53 -10 -81 28 -95 23 -8 30 -6 51 18 42 49 55 135 32 225
-9 35 -24 59 -62 95 -85 81 -228 138 -267 105z"/>
<path d="M3932 3656 c-55 -50 -99 -131 -111 -202 -10 -67 -41 -146 -107 -274
-60 -118 -66 -136 -50 -149 38 -31 126 58 192 194 49 101 144 381 144 425 0
42 -25 44 -68 6z"/>
<path d="M10170 3493 c-100 -6 -223 -24 -258 -38 -84 -36 -160 -125 -188 -223
-19 -64 -12 -99 21 -114 19 -9 29 -7 50 6 14 9 25 24 25 33 0 75 83 183 155
202 22 6 98 15 168 20 132 10 151 16 160 52 7 26 -33 70 -60 67 -10 -1 -43 -3
-73 -5z"/>
<path d="M8167 3273 c-26 -26 14 -96 139 -244 140 -166 218 -219 318 -219 39
0 120 32 160 62 18 14 17 15 -12 21 -18 4 -49 0 -74 -9 -56 -19 -127 -20 -164
-1 -49 25 -99 83 -194 224 -103 151 -147 193 -173 166z"/>
<path d="M10724 3156 c-23 -13 -81 -55 -129 -94 -91 -74 -174 -121 -375 -211
-63 -29 -128 -63 -145 -77 l-30 -26 51 5 c100 11 303 92 477 191 113 64 230
172 225 207 -4 32 -25 34 -74 5z"/>
<path d="M9001 2727 c-29 -29 0 -99 73 -175 70 -74 82 -114 62 -208 -19 -87
-24 -101 -43 -108 -47 -18 -170 54 -228 133 -34 46 -59 59 -80 41 -27 -22 -16
-46 51 -118 85 -93 169 -137 244 -130 28 3 53 1 57 -4 3 -6 24 -19 47 -29 48
-22 169 -25 293 -8 86 12 105 22 101 53 -3 19 -9 21 -63 19 -360 -11 -335 -20
-310 113 9 49 24 97 33 108 9 10 60 49 112 86 101 72 178 147 163 160 -4 5
-42 5 -83 0 -41 -5 -109 -9 -150 -10 -67 0 -84 4 -150 36 -106 51 -116 54
-129 41z"/>
<path d="M10600 2662 c-36 -16 -103 -49 -150 -74 -105 -57 -241 -114 -296
-123 -23 -3 -62 -1 -90 6 -41 10 -61 24 -116 82 -57 59 -106 97 -125 97 -2 0
13 -32 33 -71 93 -176 225 -208 494 -119 163 54 283 104 343 142 40 26 48 35
45 57 -4 38 -55 39 -138 3z"/>
<path d="M8370 2662 c-19 -15 -21 -22 -11 -39 44 -84 166 -92 319 -24 55 24
60 29 40 34 -13 4 -66 4 -118 1 -91 -6 -97 -5 -133 20 -45 31 -67 32 -97 8z"/>
<path d="M5433 2035 c-76 -32 -22 -132 57 -103 58 21 52 88 -11 110 -8 3 -29
0 -46 -7z"/>
<path d="M5515 1918 c-60 -34 -38 -108 31 -108 35 0 59 16 68 46 13 44 -56 87
-99 62z"/>
<path d="M3030 1913 c-67 -25 -41 -113 33 -113 58 0 88 58 50 93 -21 18 -62
28 -83 20z"/>
</g>
</svg>
